<svg width="147" height="125" viewBox="0 0 147 125" fill="none" xmlns="http://www.w3.org/2000/svg">
<g filter="url(#filter0_b_2345_13)">
<path fill-rule="evenodd" clip-rule="evenodd" d="M73.5 0.625C88.7948 0.625 102.807 6.18296 113.603 15.3794C120.003 13.8647 125.876 13.1652 130.837 13.5869C136.06 14.0309 141.86 15.9054 144.947 21.2512C147.74 26.0886 147.365 31.4891 145.466 36.403C143.6 41.2301 140.058 46.2141 135.285 51.2752C135.029 51.5468 134.768 51.8197 134.503 52.094C135.077 55.4813 135.375 58.958 135.375 62.5C135.375 96.6729 107.672 124.375 73.5 124.375C58.4872 124.375 44.7096 119.02 33.9961 110.125C33.6221 110.219 33.2516 110.309 32.8844 110.396C26.1149 111.999 20.0278 112.575 14.9146 111.777C9.70668 110.965 4.8376 108.576 2.05267 103.751C-1.0329 98.4074 0.242554 92.4475 2.46806 87.7038C4.58233 83.1972 8.12309 78.4617 12.6331 73.6774C11.9703 70.0474 11.6249 66.3115 11.6249 62.5C11.6249 28.3274 39.3273 0.625 73.5 0.625ZM13.9983 96.9369C13.0129 92.0659 20.8746 84.8994 23.6658 82.0381C26.1539 79.4881 27.1317 75.8946 26.4164 72.5127C25.7348 69.2884 25.3749 65.9403 25.3749 62.5C25.3749 35.9213 46.9212 14.375 73.5 14.375C85.8833 14.375 97.1603 19.0433 105.692 26.7271C108.266 29.0444 111.871 29.9956 115.326 29.1149C119.201 28.1273 129.345 24.8988 133.073 28.1893C135.379 33.0237 126.396 40.7815 123.59 43.5781C123.567 43.601 123.545 43.6239 123.522 43.6468C115.015 52.105 100.959 62.5254 80.375 74.4096C59.8023 86.2868 43.7564 93.2491 32.1798 96.3889C32.1461 96.3979 32.1125 96.4068 32.0789 96.4158C28.4551 97.3941 16.8939 101.151 13.9983 96.9369ZM50.3494 104.703C60.9284 100.483 73.245 94.4028 87.25 86.3171C101.25 78.2341 112.671 70.6097 121.613 63.5601C121.05 89.6494 99.724 110.625 73.5 110.625C65.1036 110.625 57.2171 108.479 50.3494 104.703Z" fill="#E651FF"/>
</g>
<defs>
<filter id="filter0_b_2345_13" x="-3.78015" y="-3.375" width="154.747" height="131.75" filterUnits="userSpaceOnUse" color-interpolation-filters="sRGB">
<feFlood flood-opacity="0" result="BackgroundImageFix"/>
<feGaussianBlur in="BackgroundImageFix" stdDeviation="2"/>
<feComposite in2="SourceAlpha" operator="in" result="effect1_backgroundBlur_2345_13"/>
<feBlend mode="normal" in="SourceGraphic" in2="effect1_backgroundBlur_2345_13" result="shape"/>
</filter>
</defs>
</svg>
